<?xml version="1.0" encoding="UTF-8"?>
<svg width="32px" height="32px" viewBox="0 0 32 32" version="1.1" xmlns="http://www.w3.org/2000/svg" xmlns:xlink="http://www.w3.org/1999/xlink">
    <!-- Generator: Sketch 46.2 (44496) - http://www.bohemiancoding.com/sketch -->
    <title>icon_search</title>
    <desc>Created with Sketch.</desc>
    <defs></defs>
    <g id="Symbols" stroke="none" stroke-width="1" fill="none" fill-rule="evenodd">
        <g id="Navigation" transform="translate(-1227.000000, -49.000000)">
            <g id="icon_search">
                <g transform="translate(1227.000000, 49.000000)">
                    <g id="Group-2">
                        <circle id="Oval" fill="#FFFFFF" cx="16" cy="16" r="16"></circle>
                        <path d="M21.1769831,18.7063919 C21.243736,18.7486219 21.3242748,18.7833905 21.3829657,18.8390817 C22.3724078,19.7792948 23.3624142,20.7188924 24.3453261,21.6651823 C25.154745,22.4444753 25.2151289,23.4331489 24.5180129,24.2865175 C23.8037249,25.1609625 22.3828883,25.2459609 21.5604897,24.4620526 C20.46463,23.4175339 19.3678029,22.3738612 18.2781509,21.3234964 C18.1509335,21.2008834 18.0629777,21.1871144 17.8913389,21.25619 C13.2017077,23.1430006 8.14832158,20.4605896 7.16605465,15.9400595 C6.34188239,12.1474387 8.66936485,8.55858334 12.2915951,7.40114363 C15.8452988,6.26562659 19.638281,7.59660149 21.5074421,10.6879278 C22.9702007,13.1069591 22.9871308,15.5994505 21.5713733,18.0720193 C21.5129242,18.1740943 21.449638,18.2737078 21.3874804,18.3738598 C21.3295957,18.4670118 21.2701792,18.5592409 21.1769831,18.7063919 L21.1769831,18.7063919 Z M14.8188525,9.98471029 C12.2748263,9.95224936 10.1626782,11.924366 10.1238197,14.3686276 C10.0843968,16.8461193 12.1300338,18.8627736 14.7678204,18.8896193 C17.3088637,18.9154649 19.4203667,16.9974242 19.4643043,14.5047789 C19.5085644,12.0008261 17.394159,9.99001788 14.8188525,9.98471029 L14.8188525,9.98471029 Z" id="Suche" fill="#000000"></path>
                    </g>
                </g>
            </g>
        </g>
    </g>
</svg>